<svg aria-hidden="true" style="position:absolute;width:0;height:0;overflow:hidden" xmlns="http://www.w3.org/2000/svg">
  <defs>
    <symbol id="icon-antenna" viewBox="0 0 32 32">
      <path fill="#212121" style="fill:var(--color1, #212121)" d="m30.773 22.098-8.443-8.505.937-4.616c.225.09.485.144.758.146h.033a2.16 2.16 0 1 0-2.029-1.42l-.005-.015-4.96.606L8.973.161a.53.53 0 0 0-.376-.16.536.536 0 0 0-.373.155L6.712 1.66a.535.535 0 0 0 0 .754l.814.825C6.383 5.301 5.71 7.761 5.71 10.378c0 4.106 1.656 7.824 4.336 10.525l-.001-.001a.49.49 0 0 0 .146.097 2.986 2.986 0 0 0-.052.546v6.188h-6.4a2.669 2.669 0 0 0-2.667 2.666v1.067c0 .295.239.534.534.534H26.14a.534.534 0 0 0 .533-.534v-1.067a2.67 2.67 0 0 0-2.666-2.666h-6.4v-2.742a14.784 14.784 0 0 0 10.166-1.502l-.077.039.818.823a.534.534 0 0 0 .376.16.536.536 0 0 0 .373-.155l1.512-1.504a.535.535 0 0 0 0-.754zM23.28 6.233a1.067 1.067 0 1 1 .752 1.822h-.004a1.066 1.066 0 0 1-.747-1.822h-.002zm-1.256 3.504-.598 2.946-1.175-1.183 1.774-1.763zm-.605-.902-1.92 1.909-1.486-1.493 3.406-.416zM24.004 28.8a1.6 1.6 0 0 1 1.6 1.6v.534H2.138V30.4a1.6 1.6 0 0 1 1.6-1.6h20.267zm-7.466-2.134v1.067h-5.334v-1.067h5.334zM11.204 25.6v-4.053c0-1.294 1.196-2.346 2.667-2.346s2.667 1.053 2.667 2.346V25.6h-5.334zm6.4-1.696v-2.357c0-1.882-1.675-3.413-3.733-3.413h-.058c-1.353 0-2.54.707-3.213 1.771l-.009.016a13.817 13.817 0 0 1-3.812-9.55c0-2.314.567-4.496 1.569-6.414l-.036.077 18.602 18.709c-1.823.947-3.979 1.502-6.266 1.502-1.079 0-2.128-.124-3.136-.357l.093.018zm11.289-.684L7.836 2.039l.754-.752 7.935 7.98c.004 0 .006.007.01.01l13.114 13.191-.757.752z"/>
      <path fill="#2196f3" style="fill:var(--color2, #2196f3)" d="M13.876 20.267h-.007a1.6 1.6 0 0 0-.003 3.2h.007a1.6 1.6 0 0 0 .002-3.2zm.373 1.978a.534.534 0 1 1-.378-.912.533.533 0 0 1 .374.911h.005z"/>
    </symbol>
    <symbol id="icon-astronaut" viewBox="0 0 32 32">
      <path fill="#2196f3" style="fill:var(--color2, #2196f3)" d="M31.974 4.524a.535.535 0 0 0-.427-.362h-.003l-1.911-.278-.855-1.731c-.179-.365-.777-.365-.956 0l-.855 1.731-1.911.278a.534.534 0 0 0-.296.91l1.383 1.348-.326 1.903a.532.532 0 0 0 .774.562l1.709-.899 1.709.899a.534.534 0 0 0 .773-.565v.003l-.326-1.903 1.383-1.348a.535.535 0 0 0 .134-.55l.001.004zm-2.463 1.327a.53.53 0 0 0-.153.472l.191 1.114-1-.526a.525.525 0 0 0-.501.001l.003-.001-1 .526.191-1.114a.53.53 0 0 0-.152-.472l-.811-.79 1.119-.162a.532.532 0 0 0 .402-.292l.5-1.013.5 1.013a.532.532 0 0 0 .402.292l1.119.162-.809.79zm-3.377 14.671h-1.067v1.067h1.067v-1.067zm0 2.134h-1.067v1.066h1.067v-1.066zm1.066-1.067h-1.067v1.067H27.2v-1.067zm-2.133 0H24v1.067h1.067v-1.067zm-2.667 4.8h-1.067v1.067H22.4v-1.067zm0 2.134h-1.067v1.067H22.4v-1.067zm1.067-1.067H22.4v1.067h1.067v-1.067zm-2.133 0h-1.067v1.067h1.067v-1.067zM16 24.256h-1.066v1.067H16v-1.067zm0 2.133h-1.066v1.067H16v-1.067zm1.067-1.067H16v1.067h1.067v-1.067zm-2.133 0h-1.067v1.067h1.067v-1.067zm-9.067-19.2H4.801v1.066h1.066V6.122zm0 2.134H4.801v1.066h1.066V8.256zm1.066-1.067H5.866v1.067h1.066V7.189zm-2.133 0H3.733v1.067H4.8V7.189z"/>
      <path fill="#212121" style="fill:var(--color1, #212121)" d="M24.715 14.16a1.774 1.774 0 0 0-1.179-.703l-.009-.001a1.769 1.769 0 0 0-1.344.355l.004-.003-1.253.96-1.898 1.417-1.358-.541c2.421-1.086 4.113-3.508 4.113-6.32 0-3.823-3.122-6.934-6.961-6.934S7.869 5.5 7.869 9.324c0 1.386.415 2.674 1.12 3.759l-2.768-.024c-.009 0-.016.005-.023.005a.511.511 0 0 0-.159.033l.004-.001c-.013.005-.026.007-.038.013-.006.003-.013.003-.019.006l-3.233 1.596-.001.001-1.893.91a.5.5 0 0 0-.065.036l.001-.001a1.782 1.782 0 0 0-.594 2.306l-.005-.01c.22.424.592.742 1.043.885l.013.003a1.772 1.772 0 0 0 1.388-.133l-.009.005 1.388-.738 2.264-1.169 1.357-.008-5.442 5.415-.001.001-1.339 1.333a1.643 1.643 0 0 0-.491 1.173v.005a1.668 1.668 0 0 0 1.667 1.664h.002a1.67 1.67 0 0 0 1.18-.485l1.314-1.309 1.741-1.3.901.897L4.07 27.28a1.643 1.643 0 0 0-.491 1.173v.004a1.662 1.662 0 0 0 1.666 1.664h.003a1.67 1.67 0 0 0 1.18-.485l4.488-4.472c.007-.006.016-.009.022-.016l5.166-5.658 3.471.494a.474.474 0 0 0 .262-.032c.017-.006.032-.015.049-.023.019-.01.039-.015.058-.027l3.213-2.133c.012-.008.018-.021.029-.03.013-.01.029-.014.041-.026l1.271-1.191c.348-.326.564-.787.564-1.3 0-.4-.132-.769-.355-1.066l.003.005zM2.13 17.77a.706.706 0 0 1-.564.05l.005.001a.717.717 0 0 1-.215-1.258l.002-.001 1.314-.632.316.924.133.389-.992.527zm3.497-1.828-1.548.8-.255-.746-.184-.537 2.027-1.001-.04 1.484zm15.1-6.62c0 .918-.219 1.785-.599 2.56l-4.181-1.899a1.865 1.865 0 0 0-.782-1.384l-.006-.004 1.464-4.861c2.377.757 4.104 2.975 4.104 5.588zm-11.789 0c0-3.235 2.644-5.867 5.894-5.867.253 0 .5.022.745.053l-1.432 4.753c-.019 0-.037-.006-.057-.006h-.001a1.872 1.872 0 0 0-1.872 1.867 1.873 1.873 0 0 0 1.872 1.867h.001c.695 0 1.295-.383 1.618-.944l3.863 1.755a5.891 5.891 0 0 1-4.737 2.39c-3.25 0-5.894-2.632-5.894-5.867zm5.957.8c0 .441-.362.8-.806.8h-.001a.804.804 0 0 1-.804-.8c0-.441.361-.8.806-.8s.806.359.806.8zM2.464 25.146a.606.606 0 0 1-.855.001.591.591 0 0 1 0-.844l.962-.959.852.848-.959.954zm3.214 3.734a.606.606 0 0 1-.855.001.591.591 0 0 1 0-.844l.963-.959.852.848-.96.955zm3.482-3.469-.001.001-1.765 1.76-.852-.848 1.765-1.757a.527.527 0 0 0 .09-.136c.007-.014.02-.026.026-.04.016-.041.019-.085.026-.128.003-.025.014-.048.014-.073 0-.035-.013-.07-.02-.105-.006-.032-.006-.064-.019-.096a.536.536 0 0 0-.092-.138c-.01-.012-.014-.026-.025-.038h-.001l-.001-.002-1.607-1.6c-.017-.017-.039-.024-.058-.038a.491.491 0 0 0-.084-.056l-.003-.001a.527.527 0 0 0-.09-.031l-.003-.001a.502.502 0 0 0-.101-.02h-.025a.603.603 0 0 0-.075.005h.003c-.036.005-.069.009-.104.021s-.064.027-.094.045c-.02.011-.043.015-.061.029l-1.774 1.324-.901-.897 2.399-2.386 4.36 4.289-.928.919zm6.819-7.017c-.016-.002-.03.004-.046.003l-.027-.001a.562.562 0 0 0-.092.008h.003a.484.484 0 0 0-.187.07l.002-.001a.492.492 0 0 0-.083.061c-.013.011-.028.016-.04.029l-4.698 5.146-4.328-4.256 2.833-2.818a.535.535 0 0 0-.378-.911h-.002l-2.219.013.028-1.607 3.104.027a6.928 6.928 0 0 0 4.978 2.101h.003c.438 0 .864-.046 1.28-.122.04.032.08.064.129.085l2.41.96.152.758.178.886-3.003-.427zm4.041.178-.313-1.558 1.446-1.08.946 1.257-2.08 1.381zm3.753-2.831-.837.785-.931-1.236.831-.637a.735.735 0 0 1 .543-.143.718.718 0 0 1 .621.71.71.71 0 0 1-.226.521z"/>
      <path fill="#212121" style="fill:var(--color1, #212121)" d="m13.602 18.544-2.143-2.134a.53.53 0 0 0-.752 0l-2.143 2.133a.535.535 0 0 0 0 .756l2.142 2.134a.53.53 0 0 0 .752 0l2.143-2.134a.532.532 0 0 0 0-.756zm-2.519 1.759-1.387-1.381 1.386-1.381 1.387 1.381-1.387 1.381zm6.081-15.232-.258 1.036c.071.018 1.738.452 1.738 2.149h1.067c0-2.017-1.666-2.965-2.547-3.184zm2.547 4.251h-1.067v1.066h1.067V9.322z"/>
    </symbol>
    <symbol id="icon-brand" viewBox="0 0 43 32">
      <path d="M3.239 26.373a.98.98 0 0 1 .25.665.964.964 0 0 1-.092.466l.003-.006a1.057 1.057 0 0 1-.296.378l-.002.002a1.776 1.776 0 0 1-1.13.306h.006H.001V23.97h1.936a1.76 1.76 0 0 1 1.08.283l-.007-.004a.981.981 0 0 1 .289.354.893.893 0 0 1 .086.436.92.92 0 0 1-.225.644c-.15.168-.358.283-.59.33.262.044.499.172.667.361zM.92 25.737h.828a.843.843 0 0 0 .526-.14.516.516 0 0 0 .14-.184l.001-.003a.46.46 0 0 0 .038-.185l-.002-.042v.002l.001-.035a.475.475 0 0 0-.04-.192l.001.003a.51.51 0 0 0-.138-.187l-.001-.001a.845.845 0 0 0-.545-.142h.003-.815v1.106zm1.435 1.616a.527.527 0 0 0 .151-.19l.001-.003a.472.472 0 0 0 .044-.202l-.001-.035v.002l.001-.031a.49.49 0 0 0-.047-.21l.001.003a.534.534 0 0 0-.154-.193l-.001-.001a.898.898 0 0 0-.565-.152h.003H.92v1.16h.88a.94.94 0 0 0 .556-.146zm4.842.832-1.076-1.648h-.405v1.648h-.927V23.97h1.755a1.824 1.824 0 0 1 1.225.362l-.005-.003a1.293 1.293 0 0 1 .42.938c0 .307-.109.589-.291.808l.002-.002a1.461 1.461 0 0 1-.829.427l-.008.001 1.147 1.684H7.197zm-1.482-2.222h.758c.526 0 .79-.212.79-.638l.001-.034a.58.58 0 0 0-.045-.225l.001.004a.628.628 0 0 0-.15-.218.865.865 0 0 0-.6-.171h.003-.767l.009 1.283zm6.547 1.373h-1.846l-.326.849h-.972l1.695-4.168h1.051l1.689 4.168h-.971l-.319-.848zm-.247-.638-.675-1.779-.675 1.779h1.349zm6.587 1.487h-.919l-2.063-2.866v2.866h-.918v-4.216h.918l2.063 2.883v-2.883h.919v4.216zm5.25-1.009c-.191.318-.48.577-.833.744a2.883 2.883 0 0 1-1.219.267l-.079-.001h.004-1.637v-4.215h1.637l.077-.001c.441 0 .859.096 1.235.267l-.019-.008c.352.163.642.419.832.735.189.343.288.722.288 1.106s-.099.763-.288 1.106zm-1.052-.101c.25-.261.404-.616.406-1.006 0-.369-.144-.726-.406-1.006a1.681 1.681 0 0 0-1.157-.358h.005-.639v2.729h.639a1.69 1.69 0 0 0 1.156-.361l-.004.003zM12.838.522s11.873 4.104 11.621 10.043V20.61s-11.864-4.106-11.617-10.045L12.838.522zm22.199 17.737a17.218 17.218 0 0 1 7.544-2.545v-3.146c-3.12 1.102-5.767 3.098-7.544 5.691z"/>
      <path d="M33.69 19.207c1.835-3.384 5.017-5.995 8.891-7.297V2.849S25.672 8.695 26.029 17.153v14.302s.754-.261 1.939-.752c0-.457 0-.918.054-1.382.349-3.926 2.388-7.564 5.667-10.115z"/>
      <path d="M32.082 24.52a13.62 13.62 0 0 1 .592-2.928c-2.043 2.203-3.279 4.936-3.536 7.816-.025.272-.039.543-.045.824a47.103 47.103 0 0 0 3.524-1.703l-.273.133a13.57 13.57 0 0 1-.263-4.142zm.672.051a13.013 13.013 0 0 0 .224 3.835l-.015-.084c4.62-2.531 9.811-6.442 9.61-11.168v-.412c-3.301.338-6.388 1.659-8.79 3.76a12.808 12.808 0 0 0-1.026 4.019l-.004.051z"/>
    </symbol>
    <symbol id="icon-clock" viewBox="0 0 32 32">
      <path fill="#212121" style="fill:var(--color1, #212121)" d="M31.296 15.301C31.295 6.849 24.441-.002 15.988 0S.685 6.855.687 15.308c.002 6.788 4.422 12.543 10.541 14.545l.108.031a.667.667 0 0 0 .529-.065.636.636 0 0 0 .283-.357l3.865-12.25a1.913 1.913 0 1 0-.852-3.63l.011-.005-5.106-5.107a.638.638 0 0 0-.902.902l5.103 5.109a1.847 1.847 0 0 0-.191.826c0 .602.283 1.137.723 1.48l.004.003-3.682 11.673C3.843 25.782.117 17.709 2.797 10.431S13.551-.573 20.829 2.108c7.278 2.681 11.004 10.754 8.323 18.032-1.345 3.581-4.003 6.406-7.374 7.938l-.088.036-.398-1.874a.639.639 0 0 0-1.05-.343l.001-.001-3.837 3.426a.637.637 0 0 0 .227 1.083l.005.001 4.899 1.563a.637.637 0 0 0 .818-.744l.001.004-.391-1.839c5.528-2.374 9.329-7.772 9.329-14.057v-.034.002zm-15.304-.637a.638.638 0 0 1 0 1.276.638.638 0 0 1 0-1.276zm2.1 14.864 2.184-1.948.603 2.84-2.787-.892z"/>
      <path fill="#2196f3" style="fill:var(--color2, #2196f3)" d="M15.354 3.185V4.46a.638.638 0 0 0 1.276 0V3.185a.638.638 0 1 0-1.276 0zM3.876 14.664a.638.638 0 0 0 0 1.276h1.275a.638.638 0 0 0 0-1.276H3.876zm24.232 1.275a.638.638 0 0 0 0-1.276h-1.275a.638.638 0 0 0 0 1.276h1.275z"/>
    </symbol>
    <symbol id="icon-company-5" viewBox="0 0 25 32">
      <path d="M10.532 1.806h-.084a9.985 9.985 0 0 0-.388-.014h-.28c-.244 0-.494.006-.741.018l-.028-.001-.029.001h.001a17.353 17.353 0 0 0-6.576 1.696l.104-.045-.266.128v13.626l.623-.212a23.32 23.32 0 0 1 1.731-.513c1.488-.398 3.202-.638 4.967-.661h.014v1.79c-.223.001-.439.007-.655.018h-.052a20.051 20.051 0 0 0-3.971.619l.139-.031a19.399 19.399 0 0 0-4.666 1.83l.1-.051V2.529A17.896 17.896 0 0 1 5.14.608L5.267.58a17.862 17.862 0 0 1 4.51-.582h.267c.314.008.622.022.91.044.829.06 1.597.187 2.339.378l-.09-.02v1.762a13.17 13.17 0 0 0-2.134-.326l-.045-.003-.044-.004c-.152-.013-.304-.026-.446-.026zm3.101 1.801c.391.03.796.044 1.205.044a19.413 19.413 0 0 0 4.881-.639l-.135.03a19.492 19.492 0 0 0 4.665-1.831l-.101.051v17.163a17.972 17.972 0 0 1-4.664 1.921l-.127.028a17.962 17.962 0 0 1-4.511.581h-.115c-1.177 0-2.319-.147-3.409-.425l.095.021V3.276c.265.062.537.118.814.164.455.077.934.133 1.401.167zm8.734.133-.623.209c-.572.193-1.151.365-1.731.518-1.551.415-3.332.657-5.169.663h-.004c-.406 0-.78-.011-1.141-.034l-.497-.033V19.08l.426.037c.395.035.803.052 1.214.052a16.554 16.554 0 0 0 4.189-.553l-.116.026a16.96 16.96 0 0 0 3.285-1.189l-.102.044.266-.128V3.739zM1.684 25.977a.916.916 0 0 0-.661-.281l-.034.001h.002-.014c-.139 0-.272.028-.393.078l.007-.003a.904.904 0 0 0-.51.512l-.002.006a1.001 1.001 0 0 0-.071.386v2.335c-.006.164.026.328.092.479.055.12.135.226.234.313a.824.824 0 0 0 .32.166c.114.031.231.048.349.048a.985.985 0 0 0 .968-.982v-.261H1.36v.222c0 .07-.013.136-.037.198l.001-.004a.38.38 0 0 1-.089.132.426.426 0 0 1-.255.089.308.308 0 0 1-.286-.125l-.001-.001a.548.548 0 0 1-.082-.289l.001-.024v.001-2.177a.74.74 0 0 1 .075-.349.31.31 0 0 1 .262-.143l.038.002H.986h.012c.107 0 .201.052.26.131l.001.001a.493.493 0 0 1 .101.3v.014-.001.202h.604v-.249c0-.143-.027-.28-.077-.405l.003.007a.955.955 0 0 0-.205-.329zm3.626-.026a1.051 1.051 0 0 0-1.058-.191.965.965 0 0 0-.557.511l-.002.006a1.08 1.08 0 0 0-.089.452v2.239c-.004.158.026.314.089.458a.888.888 0 0 0 .236.313.964.964 0 0 0 .322.197 1.049 1.049 0 0 0 1.059-.198l-.001.001a.948.948 0 0 0 .23-.313c.063-.144.093-.301.089-.458v-2.259c0-.156-.033-.305-.092-.439l.003.007a1.016 1.016 0 0 0-.23-.327zm-.285 3.018.002.035a.398.398 0 0 1-.123.289.446.446 0 0 1-.575 0l.001.001a.398.398 0 0 1-.121-.326v.002-2.239l-.001-.034a.4.4 0 0 1 .123-.289.446.446 0 0 1 .575 0l-.001-.001a.398.398 0 0 1 .121.326v-.002 2.24zm5.047 1v-4.24h-.586l-.771 2.244h-.01l-.777-2.244h-.58v4.239h.606V27.39h.011l.593 1.823h.302l.598-1.823h.01v2.578h.606zm3.441-3.942a.834.834 0 0 0-.342-.232 1.31 1.31 0 0 0-.416-.066h-.024.001-.9v4.24h.604v-1.656h.311c.189.009.376-.031.545-.116a.88.88 0 0 0 .329-.32l.002-.004a1 1 0 0 0 .138-.369c.021-.133.033-.287.033-.444v-.04.002a2.426 2.426 0 0 0-.059-.606.906.906 0 0 0-.223-.39zm-.312 1.292a.538.538 0 0 1-.057.224l.001-.003a.342.342 0 0 1-.154.147l-.002.001a.617.617 0 0 1-.254.054l-.033-.001h.002-.276V26.3h.311l.029-.001c.088 0 .172.02.247.055l-.004-.002a.35.35 0 0 1 .141.154l.001.002a.62.62 0 0 1 .053.236v.282c0 .098.006.201 0 .291H13.2zm3.173-1.59h-.495l-.934 4.24h.604l.177-.911h.823l.178.911h.604l-.958-4.24zm-.557 2.752.297-1.537h.011l.295 1.537h-.604zm4.46-.198h-.011l-.912-2.554h-.581v4.24h.604v-2.55h.012l.923 2.549h.568v-4.239h-.604v2.554zm3.691-2.554-.486 1.686h-.012l-.486-1.686h-.639l.83 2.448v1.791h.604v-1.791l.83-2.447h-.64zM0 31.166h.291v.817h.198v-.817h.289v-.167H0v.168zm2.447-.168-.382.985h.21l.081-.224h.392l.084.224h.215l-.391-.985h-.21zm-.03.595.134-.365.134.365h-.268zm2.449.027h.228v.127a.378.378 0 0 1-.234.083h-.014a.25.25 0 0 1-.195-.094.406.406 0 0 1-.073-.234l.001-.023v.001c0-.219.095-.329.283-.329l.021-.001c.097 0 .178.067.201.157v.001l.194-.038c-.042-.192-.18-.289-.417-.289h-.013a.492.492 0 0 0-.331.127.48.48 0 0 0-.141.38v-.002.023c0 .132.048.254.127.347l-.001-.001c.087.09.209.146.343.146L4.877 32h-.001.016c.155 0 .296-.06.402-.157v-.388h-.426v.166zm2.471-.622h-.199v.985h.689v-.167h-.49v-.817zm2.089 0h-.199v.985h.199v-.985zm2.043.657-.404-.657h-.193v.985h.185v-.643l.396.643h.198v-.985h-.182v.658zm1.846-.106h.49v-.167h-.49v-.215h.527v-.168h-.727v.985h.747v-.167h-.548v-.266zm4.477-.163h-.388v-.388h-.197v.984h.197v-.431h.388v.431h.198v-.985h-.198v.388zm1.857.163h.492v-.167h-.492v-.215h.529v-.168h-.726v.985h.746v-.167h-.548v-.266zm2.519.001c.171-.027.258-.118.258-.274a.23.23 0 0 0-.096-.219h-.001a.555.555 0 0 0-.25-.059l-.04.001h.002-.417v.984h.198v-.412h.055c.039 0 .076.008.109.023l-.002-.001a.201.201 0 0 1 .07.072l.215.313h.236l-.12-.192a.704.704 0 0 0-.215-.235l-.002-.002zm-.199-.137h-.146v-.247h.156a.515.515 0 0 1 .205.024l-.004-.001a.13.13 0 0 1-.009.2.537.537 0 0 1-.164.025l-.039-.001h.002zm2.099.136h.49v-.167h-.49v-.215h.529v-.168h-.729v.985h.747v-.167h-.548v-.266z"/>
    </symbol>
    <symbol id="icon-company-1" viewBox="0 0 94 45">
      <path d="M47.425 21.408a2.947 2.947 0 0 1-.605-1.988v-2.884c0-.883.2-1.555.602-2.015.4-.46 1.089-.688 2.065-.686.917 0 1.569.196 1.953.587.42.499.625 1.109.578 1.724v.678h-1.64v-.687c.005-.224-.01-.449-.048-.671a.65.65 0 0 0-.235-.399.95.95 0 0 0-.594-.155 1.005 1.005 0 0 0-.625.164.768.768 0 0 0-.272.44 3.332 3.332 0 0 0-.065.713v3.499c-.026.337.047.675.21.982a.77.77 0 0 0 .328.238.9.9 0 0 0 .424.055.893.893 0 0 0 .58-.158.704.704 0 0 0 .245-.425c.038-.232.056-.467.051-.701v-.71h1.641v.648a2.64 2.64 0 0 1-.567 1.813c-.377.428-1.02.642-1.964.642s-1.658-.229-2.062-.704ZM54.257 21.438c-.415-.45-.622-1.103-.622-1.968v-3.033c0-.857.207-1.505.622-1.945.414-.44 1.107-.659 2.079-.657.965 0 1.654.22 2.069.657.414.44.625 1.088.625 1.945v3.032c0 .857-.21 1.514-.632 1.966-.421.451-1.107.677-2.062.677-.955 0-1.661-.229-2.08-.674Zm2.843-.728c.149-.28.216-.589.197-.897v-3.714a1.65 1.65 0 0 0-.193-.88.776.776 0 0 0-.335-.241.907.907 0 0 0-.433-.052.918.918 0 0 0-.434.052.786.786 0 0 0-.337.242c-.15.274-.217.576-.197.88v3.73c-.02.309.047.617.197.898.095.094.214.17.346.222a1.158 1.158 0 0 0 .843 0c.133-.052.25-.128.346-.222v-.018ZM61.004 13.924h1.766l1.328 5.595 1.36-5.595h1.718L67.35 22h-1.271l-.136-5.613L64.632 22h-1.02l-1.358-5.634L62.128 22h-1.284l.16-8.076ZM69.33 13.924h2.752c1.585 0 2.378.764 2.378 2.293 0 1.464-.835 2.196-2.504 2.194h-.937V22H69.32l.01-8.077Zm2.351 3.451c.168.019.338.006.5-.039.16-.044.31-.117.434-.216.195-.273.281-.593.245-.912a2.525 2.525 0 0 0-.082-.733.594.594 0 0 0-.125-.222.703.703 0 0 0-.214-.162 1.759 1.759 0 0 0-.758-.13h-.659v2.414h.66ZM76.91 13.924h1.824L80.606 22h-1.584l-.37-1.862h-1.627L76.645 22h-1.607l1.871-8.076Zm1.559 5.279-.636-3.39-.635 3.39h1.27ZM82.117 13.924h1.19l2.275 4.607v-4.607h1.41V22h-1.131l-2.29-4.81V22h-1.457l.003-8.076ZM90.294 18.92l-1.892-4.985h1.594l1.155 3.203 1.083-3.203h1.56l-1.869 4.986V22h-1.63v-3.08ZM50.048 25.532v.422h-1.386v3.282h-.581v-3.282h-1.393v-.422h3.36ZM54.393 29.236h-.449a.2.2 0 0 1-.126-.035.194.194 0 0 1-.074-.085l-.401-.88H51.42l-.4.88a.243.243 0 0 1-.062.1.208.208 0 0 1-.126.035h-.448l1.699-3.704h.59l1.72 3.69Zm-2.813-1.375h1.603l-.68-1.508a2.699 2.699 0 0 1-.125-.349c-.024.07-.044.138-.064.197l-.062.155-.672 1.505ZM57.321 28.872c.107.005.213.005.32 0 .091-.008.182-.023.271-.044.083-.017.165-.04.245-.067.075-.026.15-.059.227-.091v-.833h-.679a.137.137 0 0 1-.092-.03.086.086 0 0 1-.026-.03.074.074 0 0 1-.008-.037v-.284h1.318v1.42a2.578 2.578 0 0 1-.716.301c-.14.036-.281.061-.425.077-.165.015-.33.023-.496.023a2.59 2.59 0 0 1-.856-.138 2.09 2.09 0 0 1-.68-.387 1.79 1.79 0 0 1-.438-.586 1.851 1.851 0 0 1-.156-.769 1.92 1.92 0 0 1 .153-.774c.097-.22.247-.42.438-.587.194-.167.425-.297.68-.384.29-.095.6-.142.91-.138.158 0 .316.01.472.032.138.02.274.051.404.094.12.038.233.088.34.147.104.058.203.122.296.193l-.163.229a.142.142 0 0 1-.055.05.17.17 0 0 1-.078.02.222.222 0 0 1-.105-.029 2.113 2.113 0 0 1-.167-.088 1.504 1.504 0 0 0-.227-.1 2.127 2.127 0 0 0-.313-.082 2.614 2.614 0 0 0-.431-.032 2.009 2.009 0 0 0-.656.103c-.189.065-.36.165-.5.293a1.29 1.29 0 0 0-.315.46 1.732 1.732 0 0 0 0 1.235c.074.174.19.333.34.467.139.127.308.227.495.293.216.064.445.089.673.073ZM62.736 28.814h1.855v.422H62.17v-3.704h.58l-.013 3.282ZM66.52 29.236h-.58v-3.704h.58v3.704ZM68.681 25.55a.28.28 0 0 1 .089.067l2.483 2.792a.881.881 0 0 1 0-.132V25.517h.506v3.72h-.292a.275.275 0 0 1-.126-.021.328.328 0 0 1-.091-.07l-2.48-2.79v2.88h-.486v-3.704h.302c.033 0 .066.006.095.017ZM76.036 25.532v.407h-2.058v1.223h1.668v.393h-1.668v1.265h2.058v.407H73.38v-3.695h2.656ZM15.162 2.656l25.795 6.323v22.158l-25.795-6.32V2.655ZM13.507.766v25.127l29.1 7.136V7.905L13.508.767Z"/>
    <path d="M29.104 44.692 0 37.55V12.427l29.104 7.139v25.126Z"/>
    <path d="m13.99 2.371 25.458 6.244-10.826 9.35-25.463-6.247L13.99 2.37ZM13.507.767 0 12.427l29.104 7.14L42.608 7.904 13.508.767ZM30.741 43.279 42.608 33.03 30.74 30.12v13.16Z"/>
  </symbol>
    <symbol id="icon-company-2" viewBox="0 0 106 60">
      <path d="M26.757 44.735c.244.276.373.622.367.977a1.43 1.43 0 0 1-.131.676 1.558 1.558 0 0 1-.438.558 2.627 2.627 0 0 1-1.651.45H22v-6.19h2.844a2.593 2.593 0 0 1 1.576.41c.184.142.33.32.425.52.096.202.139.42.127.64.016.34-.1.677-.33.946-.221.246-.526.416-.866.484.385.064.733.252.98.53Zm-3.406-.934h1.216c.276.018.55-.055.773-.206a.738.738 0 0 0 .207-.275.68.68 0 0 0 .054-.33.702.702 0 0 0-.055-.329.759.759 0 0 0-.203-.276 1.255 1.255 0 0 0-.796-.209H23.35v1.625Zm2.108 2.374a.777.777 0 0 0 .224-.284.712.712 0 0 0 .063-.345.722.722 0 0 0-.066-.35.788.788 0 0 0-.228-.285 1.338 1.338 0 0 0-.826-.224h-1.275v1.703h1.292c.29.015.578-.06.816-.215ZM32.57 47.397l-1.581-2.42h-.595v2.42h-1.361v-6.191h2.577a2.699 2.699 0 0 1 1.793.526c.36.336.578.779.613 1.248a1.86 1.86 0 0 1-.421 1.314 2.148 2.148 0 0 1-1.229.629l1.685 2.474h-1.48Zm-2.176-3.264h1.113c.773 0 1.16-.312 1.16-.937a.852.852 0 0 0-.063-.375.917.917 0 0 0-.221-.321 1.282 1.282 0 0 0-.876-.251h-1.126l.013 1.884ZM40.01 46.15h-2.712l-.479 1.247h-1.427l2.49-6.122h1.544l2.48 6.122H40.48l-.469-1.246Zm-.363-.937-.991-2.613-.991 2.613h1.982ZM49.322 47.397h-1.35l-3.03-4.21v4.21h-1.348v-6.192h1.348l3.03 4.235v-4.235h1.35v6.192ZM57.033 45.915c-.28.467-.705.848-1.223 1.092a4.288 4.288 0 0 1-1.9.39h-2.404v-6.191h2.405a4.376 4.376 0 0 1 1.9.38c.517.24.943.616 1.222 1.08.278.504.423 1.06.423 1.625 0 .564-.145 1.12-.423 1.624Zm-1.546-.148a2.16 2.16 0 0 0 .597-1.478c0-.542-.212-1.066-.597-1.477a2.488 2.488 0 0 0-1.692-.527h-.938v4.008h.938a2.49 2.49 0 0 0 1.692-.526ZM40.856 6.767s17.438 6.028 17.069 14.751v14.754s-17.426-6.03-17.063-14.754l-.006-14.751ZM73.46 32.818c3.294-2.075 7.103-3.36 11.08-3.738v-4.62c-4.582 1.618-8.47 4.55-11.08 8.358Z"/>
      <path d="M71.482 34.21c2.695-4.97 7.368-8.805 13.058-10.717V10.185s-24.835 8.587-24.31 21.009V52.2s1.107-.384 2.848-1.104c0-.671 0-1.349.08-2.03.513-5.766 3.507-11.11 8.324-14.857Z"/>
      <path d="M69.12 42.013c.13-1.457.421-2.898.868-4.301-2.998 3.235-4.815 7.25-5.192 11.479-.037.399-.057.798-.067 1.21a74.756 74.756 0 0 0 4.777-2.305c-.44-2.001-.57-4.049-.386-6.083ZM70.108 42.089a19.051 19.051 0 0 0 .307 5.508c6.785-3.718 14.41-9.462 14.115-16.403v-.605c-4.848.497-9.383 2.437-12.91 5.523a19.259 19.259 0 0 0-1.513 5.977Z"/>
    </symbol>
    <symbol id="icon-company-6" viewBox="0 0 106 60">
      <path fill-rule="evenodd" clip-rule="evenodd" d="m38 7 7.008 6.634L32 13.626v32.188h34V33.507l7 6.627V7H38Zm27.692 25.728-19.87-18.81h19.87v18.81Zm-6.169 8.377H37.38V19.459h1.565V39.64h20.578v1.465ZM42.61 50.1l-.818 1.685-.818-1.685h-.686l1.194 2.246v1.309h.62v-1.309l1.191-2.246h-.683Zm1.028 3.555.288-.828h1.377l.29.828h.645l-1.345-3.555h-.555l-1.342 3.555h.642Zm.976-2.8.515 1.474h-1.03l.515-1.475Zm3.257 1.389a.807.807 0 0 0-.134.451c0 .3.105.543.315.73.211.186.493.279.844.279.352 0 .655-.096.909-.286l.2.237h.688l-.522-.618c.205-.28.307-.639.307-1.077h-.515c0 .24-.05.457-.149.652l-.686-.81.242-.176a1.34 1.34 0 0 0 .369-.371.785.785 0 0 0 .112-.41.732.732 0 0 0-.249-.564.895.895 0 0 0-.635-.23c-.286 0-.514.082-.683.244-.17.162-.254.381-.254.66 0 .114.027.231.08.354.056.122.153.27.29.444-.263.189-.44.352-.529.49Zm1.604.786a.905.905 0 0 1-.561.2.585.585 0 0 1-.425-.154.533.533 0 0 1-.159-.4c0-.19.098-.36.293-.508l.076-.054.776.916Zm-.637-1.575c-.168-.207-.252-.378-.252-.515 0-.119.035-.217.103-.295a.348.348 0 0 1 .276-.118.37.37 0 0 1 .266.1c.07.066.105.145.105.237a.44.44 0 0 1-.151.345l-.076.06-.271.186Zm5.786 1.931c.244-.213.384-.51.42-.888h-.615c-.033.254-.11.435-.232.544-.122.11-.305.164-.547.164-.265 0-.467-.101-.605-.303-.137-.202-.206-.495-.206-.88v-.314c.004-.38.077-.666.22-.862.145-.197.352-.295.62-.295.231 0 .406.057.525.17.12.113.195.297.225.552h.615c-.04-.389-.178-.69-.417-.903-.24-.213-.555-.32-.948-.32-.291 0-.548.07-.771.208a1.346 1.346 0 0 0-.51.59 2.082 2.082 0 0 0-.179.887v.332c.005.327.066.614.183.862.118.247.284.438.498.573.217.134.467.2.75.2.405 0 .73-.105.974-.317Zm3.63-.498c.12-.264.181-.57.181-.918v-.197a2.149 2.149 0 0 0-.185-.911 1.356 1.356 0 0 0-.52-.6c-.224-.14-.48-.21-.77-.21-.29 0-.546.07-.771.212-.223.14-.396.342-.52.608a2.174 2.174 0 0 0-.183.918v.2c.002.34.063.64.185.9.124.261.298.462.523.604.226.14.483.21.771.21.292 0 .549-.07.772-.21.224-.142.397-.344.517-.606Zm-.661-2.01c.15.21.224.513.224.907v.185c0 .4-.074.705-.222.913-.146.209-.356.313-.63.313a.738.738 0 0 1-.634-.32c-.152-.213-.227-.515-.227-.906v-.205c.003-.382.08-.678.229-.886a.731.731 0 0 1 .627-.315c.274 0 .485.105.633.315Z"/>
    </symbol>
    <symbol id="icon-company-3" viewBox="0 0 106 60">
     <path d="M24.146 21.103h-.003c-2.398 0-4.342 1.727-4.342 3.858v.003c0 2.131 1.944 3.859 4.342 3.859h.003c2.398 0 4.342-1.728 4.342-3.859v-.002c0-2.132-1.944-3.86-4.342-3.86ZM56.195 19.87c-.007-2.96-1.333-5.798-3.688-7.891C50.153 9.886 46.96 8.707 43.63 8.7c-3.332.005-6.526 1.184-8.882 3.277-2.356 2.094-3.682 4.931-3.69 7.892v16.323s25.134-2.488 25.137-16.32v-.003ZM11 41.55c.006 2.06.93 4.033 2.568 5.49 1.638 1.456 3.859 2.277 6.176 2.283 2.317-.006 4.537-.827 6.176-2.283 1.638-1.456 2.562-3.429 2.568-5.488V30.194S11 31.927 11 41.55Zm8.744 2.034c-.453 0-.895-.119-1.272-.343a2.107 2.107 0 0 1-.843-.913 1.825 1.825 0 0 1-.13-1.175c.088-.395.306-.758.626-1.042.32-.285.728-.479 1.172-.557a2.558 2.558 0 0 1 1.323.115c.419.154.776.415 1.028.75s.386.728.386 1.13c.001.268-.057.534-.172.782a2.036 2.036 0 0 1-.496.662c-.212.19-.465.34-.744.443a2.539 2.539 0 0 1-.878.156v-.008ZM37.418 42.464H35.73v1.743h-.879V39.94h2.778v.712H35.73v1.102h1.688v.709Zm4.224-.293c0 .42-.074.788-.222 1.104-.149.317-.362.56-.64.733a1.755 1.755 0 0 1-.948.258c-.354 0-.67-.085-.947-.255a1.695 1.695 0 0 1-.644-.727 2.511 2.511 0 0 1-.231-1.09v-.21c0-.42.075-.79.225-1.108.152-.32.366-.566.642-.735.277-.172.593-.258.949-.258.355 0 .67.086.946.258.278.17.491.415.642.735.152.318.228.686.228 1.104v.19Zm-.89-.194c0-.447-.08-.787-.24-1.02a.783.783 0 0 0-.686-.348.782.782 0 0 0-.683.346c-.16.229-.241.564-.243 1.008v.208c0 .435.08.773.24 1.013.16.24.39.36.692.36a.775.775 0 0 0 .68-.345c.158-.232.238-.57.24-1.014v-.208Zm3.74 1.11a.447.447 0 0 0-.175-.38c-.117-.09-.328-.184-.633-.281a4.575 4.575 0 0 1-.723-.293c-.485-.262-.727-.615-.727-1.058 0-.23.064-.436.193-.615.131-.182.318-.323.56-.425.244-.101.518-.152.82-.152.305 0 .576.055.815.167.238.11.423.264.553.466.133.2.2.43.2.685h-.88c0-.195-.06-.347-.184-.454-.123-.11-.296-.164-.518-.164-.215 0-.382.046-.501.138a.426.426 0 0 0-.179.357c0 .139.07.255.208.349.14.093.347.181.618.263.5.15.864.337 1.093.56.228.222.343.5.343.832 0 .369-.14.66-.42.87-.279.209-.654.314-1.127.314-.328 0-.627-.06-.897-.18a1.438 1.438 0 0 1-.618-.494 1.27 1.27 0 0 1-.21-.727h.881c0 .47.281.706.844.706.209 0 .372-.042.49-.126a.418.418 0 0 0 .175-.357Zm4.691-2.434h-1.306v3.554h-.88v-3.554H45.71v-.712h3.474v.712Zm3.07 1.705h-1.687v1.143h1.98v.706h-2.859V39.94h2.854v.712h-1.975v1.017h1.688v.688Zm2.388.287h-.7v1.562h-.879V39.94h1.585c.504 0 .893.113 1.166.337.274.225.41.542.41.952 0 .291-.063.535-.19.73a1.282 1.282 0 0 1-.571.463l.922 1.743v.04h-.943l-.8-1.56Zm-.7-.712h.71c.22 0 .39-.055.512-.166a.607.607 0 0 0 .181-.466c0-.202-.057-.36-.172-.475-.114-.115-.288-.173-.525-.173h-.706v1.28Zm5.326.771v1.503h-.879V39.94h1.664c.32 0 .602.059.844.176.244.117.432.284.563.501.13.215.196.46.196.735 0 .418-.144.748-.43.99-.286.24-.681.361-1.187.361h-.77Zm0-.712h.785c.233 0 .41-.055.53-.164.124-.11.185-.266.185-.469a.704.704 0 0 0-.184-.507c-.123-.128-.293-.195-.51-.199h-.806v1.34Zm5.56.366H63.14v1.143h1.98v.706h-2.859V39.94h2.854v.712H63.14v1.017h1.688v.688Zm4.079-1.705h-1.307v3.554h-.879v-3.554h-1.289v-.712h3.475v.712Zm3.07 1.705H70.29v1.143h1.98v.706h-2.86V39.94h2.854v.712H70.29v1.017h1.687v.688Zm2.388.287h-.7v1.562h-.88V39.94h1.586c.504 0 .892.113 1.166.337.273.225.41.542.41.952 0 .291-.064.535-.19.73a1.283 1.283 0 0 1-.572.463l.923 1.743v.04h-.943l-.8-1.56Zm-.7-.712h.709c.22 0 .391-.055.512-.166a.607.607 0 0 0 .182-.466c0-.202-.057-.36-.173-.475-.113-.115-.288-.173-.524-.173h-.706v1.28Zm5.165 1.155a.447.447 0 0 0-.176-.381c-.117-.09-.328-.184-.633-.281a4.57 4.57 0 0 1-.723-.293c-.485-.262-.727-.615-.727-1.058 0-.23.065-.436.193-.615.131-.182.318-.323.56-.425.244-.101.518-.152.82-.152.305 0 .576.055.815.167.238.11.423.264.553.466.133.2.2.43.2.685h-.88c0-.195-.06-.347-.184-.454-.123-.11-.296-.164-.518-.164-.215 0-.382.046-.501.138a.426.426 0 0 0-.18.357c0 .139.07.255.209.349.14.093.347.181.618.263.5.15.864.337 1.093.56.228.222.343.5.343.832 0 .369-.14.66-.42.87-.279.209-.655.314-1.127.314-.328 0-.627-.06-.897-.18a1.438 1.438 0 0 1-.618-.494 1.27 1.27 0 0 1-.21-.727h.881c0 .47.281.706.844.706.209 0 .372-.042.489-.126a.418.418 0 0 0 .176-.357Z"/>
    </symbol>
    <symbol id="icon-company-4" viewBox="0 0 43 41">
      <path d="M5.643 31.315c.012 0 .024.003.035.008s.021.011.03.018l.166.158c-.13.129-.289.232-.468.302a1.78 1.78 0 0 1-.62.109l-.045-.001h.002a1.742 1.742 0 0 1-.622-.101 1.365 1.365 0 0 1-.47-.286l.001.001a1.294 1.294 0 0 1-.301-.432l-.003-.008a1.442 1.442 0 0 1-.106-.548v-.018.001-.029c0-.388.168-.737.436-.977l.001-.001a1.52 1.52 0 0 1 .498-.287 1.96 1.96 0 0 1 .642-.101h.04c.199 0 .39.034.568.096l-.012-.004c.165.062.316.149.447.255l-.139.169a.143.143 0 0 1-.035.03h-.001a.098.098 0 0 1-.048.013h-.008a.132.132 0 0 1-.062-.018h.001l-.074-.046-.104-.058a1.182 1.182 0 0 0-.321-.1l-.007-.001a1.376 1.376 0 0 0-.23-.018h-.019.001-.015c-.16 0-.313.028-.455.079l.009-.003a1.07 1.07 0 0 0-.363.214l.001-.001a.977.977 0 0 0-.235.339 1.117 1.117 0 0 0-.085.432v.017-.001.019c0 .157.031.307.088.444l-.003-.008a.953.953 0 0 0 .576.548c.136.049.281.073.427.072.085.001.17-.004.254-.014.211-.022.4-.106.55-.234l-.001.001a.133.133 0 0 1 .078-.029zm4.798-.798v.017c0 .197-.041.384-.116.553l.003-.009a1.24 1.24 0 0 1-.311.435l-.001.001c-.138.123-.302.22-.481.283l-.01.003a2.03 2.03 0 0 1-1.278-.004l.014.004a1.471 1.471 0 0 1-.489-.288l.001.001a1.28 1.28 0 0 1-.313-.432l-.003-.008a1.454 1.454 0 0 1 .004-1.134l-.004.01c.071-.165.178-.315.316-.442a1.45 1.45 0 0 1 .488-.277 2.003 2.003 0 0 1 1.278.004l-.014-.004c.184.065.351.162.49.286a1.296 1.296 0 0 1 .426 1zm-.436 0v-.024a1.19 1.19 0 0 0-.082-.436l.003.008a.935.935 0 0 0-.566-.548l-.007-.002a1.455 1.455 0 0 0-.928.003l.01-.003a.997.997 0 0 0-.352.214.914.914 0 0 0-.223.331l-.002.006a1.321 1.321 0 0 0 .003.911l-.003-.009c.101.261.309.46.569.547l.007.002c.296.097.622.097.918 0a.97.97 0 0 0 .35-.211.933.933 0 0 0 .222-.338c.056-.145.082-.298.079-.451zm3.71.473.043.101c.017-.036.031-.069.048-.101.019-.039.037-.072.056-.103l-.002.004 1.061-1.677c.021-.029.04-.047.061-.053s.047-.009.073-.009h.015-.001.314v2.728h-.372v-2.09a.68.68 0 0 1 0-.096v.002l-1.069 1.701a.158.158 0 0 1-.062.061h-.001a.19.19 0 0 1-.09.023h-.064a.183.183 0 0 1-.09-.023h.001a.15.15 0 0 1-.061-.061v-.001l-1.099-1.711v2.189h-.359v-2.722h.328c.026 0 .051.003.075.01h-.002c.026.011.046.03.058.053l1.084 1.678c.02.028.038.06.053.094l.001.004zm3.995-.135v1.021h-.414v-2.723h.926c.175-.003.349.018.517.059.134.034.259.091.366.17.089.07.159.16.205.262l.002.004c.05.111.073.23.071.349v.017a.755.755 0 0 1-.299.603l-.002.001a1.062 1.062 0 0 1-.368.18c-.14.04-.301.064-.468.064h-.035l-.501-.008zm0-.293h.503c.109.002.218-.013.322-.041a.69.69 0 0 0 .234-.119l-.002.001a.522.522 0 0 0 .191-.404v-.007l.001-.029a.453.453 0 0 0-.043-.195l.001.003a.529.529 0 0 0-.144-.185l-.001-.001a.888.888 0 0 0-.562-.146h.003-.503v1.122zm5.584 1.318h-.334a.15.15 0 0 1-.086-.026h.001a.161.161 0 0 1-.054-.062v-.001l-.282-.658H21.12l-.293.658a.156.156 0 0 1-.141.088h-.333l1.246-2.728h.432l1.263 2.728zm-2.057-1.013h1.172l-.494-1.11a1.875 1.875 0 0 1-.094-.256l-.048.142a.876.876 0 0 1-.046.116l-.49 1.108zm3.852-1.701a.173.173 0 0 1 .062.048l1.818 2.056v-2.117h.372v2.728h-.212a.204.204 0 0 1-.082-.017h.001a.221.221 0 0 1-.066-.05l-1.816-2.054.001.047-.002.049v-.002 2.027h-.372v-2.728h.22c.025 0 .051.005.075.013zm5.313 1.629v1.083h-.415v-1.082l-1.149-1.643h.381a.16.16 0 0 1 .081.023h-.001a.234.234 0 0 1 .056.062l.718 1.06a1.159 1.159 0 0 1 .128.241l.053-.117c.021-.043.044-.084.071-.124l.709-1.067a.293.293 0 0 1 .053-.058.137.137 0 0 1 .082-.027h.384l-1.15 1.65zm-16.893-6.219c.181.02.363.036.549.05 2.803-1.09 5.174-2.872 6.818-5.126s2.485-4.878 2.421-7.546l-3.09-2.683c.629 2.84.335 5.775-.848 8.478s-3.208 5.067-5.849 6.827z"/>
      <path d="m12.407 24.451.083.015c2.822-1.755 4.973-4.203 6.176-7.031s1.402-5.904.571-8.83l-4.4-3.822c1.779 3.142 2.496 6.659 2.065 10.141-.43 3.482-1.989 6.786-4.495 9.528zm14.921-9.345c-.747 2.931-2.563 5.574-5.177 7.538a16.213 16.213 0 0 1-2.367 1.49l-.092.043c2.129-.543 4.085-1.504 5.718-2.808s2.901-2.917 3.703-4.714l-1.784-1.549z"/>
      <path d="m26.628 14.674-2.54-2.207c-.049 2.517-.872 4.976-2.385 7.122s-3.66 3.902-6.217 5.084h.012c.57 0 1.139-.03 1.705-.088 2.39-.848 4.502-2.197 6.146-3.926s2.771-3.785 3.278-5.985zM12.774 3.17 9.743.534c-2.709.91-5.039 2.509-6.686 4.588S.526 9.664.518 12.188c.01 2.789 1.09 5.495 3.07 7.69 1.979 2.194 4.744 3.754 7.858 4.43 2.779-2.942 4.407-6.578 4.646-10.379s-.924-7.57-3.319-10.758zM33.63 14.268c-.011-3.308-1.528-6.478-4.221-8.818s-6.342-3.658-10.15-3.668h-.028c-1.831 0-3.59.305-5.231.867l.114-.034L32.67 18.737c.605-1.313.958-2.849.96-4.468v-.001z"/>
    </symbol>
    <symbol id="icon-computer" viewBox="0 0 32 32">
      <path fill="#2196f3" style="fill:var(--color2, #2196f3)" d="M14.926 14.965h1.066v4.798h-1.066v-4.798zm4.264 2.132h1.066v2.665H19.19v-2.665zm-8.529 1.599h1.066v1.066h-1.066v-1.066zm-3.198-.533h1.066v1.599H7.463v-1.599z"/>
      <path fill="#212121" style="fill:var(--color1, #212121)" d="M1.599 28.291h25.586a1.6 1.6 0 0 0 1.599-1.599V24.56a1.6 1.6 0 0 0-1.599-1.599h-.533V9.667l3.028-2.868a1.608 1.608 0 1 0-.742-.752l-.004-.01-2.281 2.162v-1.23a1.6 1.6 0 0 0-1.599-1.599H3.731a1.6 1.6 0 0 0-1.599 1.599v15.992h-.533A1.6 1.6 0 0 0 0 24.56v2.132a1.6 1.6 0 0 0 1.599 1.599zM30.384 4.837a.533.533 0 0 1 0 1.066.533.533 0 0 1 0-1.066zM3.198 6.969c0-.294.239-.533.533-.533h21.323c.294 0 .533.239.533.533v2.239l-1.066 1.013V8.036a.534.534 0 0 0-.534-.534H4.798a.534.534 0 0 0-.534.533v13.327c0 .294.239.533.534.533h19.189a.534.534 0 0 0 .534-.533v-9.675l1.066-1.01V22.96H3.198V6.969zm4.798 6.93h-.005a1.6 1.6 0 1 0 1.112 2.748l1.853.93a.535.535 0 0 0 .636-.122l3.939-4.432 3.872 2.902a.534.534 0 0 0 .686-.039l3.365-3.188v8.131H5.331V8.568h18.123v2.661l-3.771 3.572-3.904-2.927a.534.534 0 0 0-.718.071v.001l-3.993 4.493-1.493-.746c.011-.064.017-.128.02-.193a1.6 1.6 0 0 0-1.599-1.599zm.533 1.599a.533.533 0 0 1-1.066 0 .533.533 0 0 1 1.066 0zm3.198 8.528h5.33v.533a.533.533 0 0 1-.533.533h-4.265a.533.533 0 0 1-.533-.533v-.533zm-10.66.534c0-.294.238-.533.533-.533h9.062v.533a1.6 1.6 0 0 0 1.599 1.599h4.265a1.6 1.6 0 0 0 1.599-1.599v-.533h9.062c.294 0 .533.239.533.533v2.132a.533.533 0 0 1-.533.533H1.601a.533.533 0 0 1-.533-.533V24.56z"/>
    </symbol>
    <symbol id="icon-facebook" viewBox="0 0 32 32">
      <path d="M21.328 5.312h2.923V.224A36.483 36.483 0 0 0 20.143 0h-.156.008c-4.213 0-7.099 2.65-7.099 7.52V12H8.25v5.688h4.646V32h5.699V17.69h4.459l.707-5.688h-5.168V8.08c0-1.643.443-2.768 2.734-2.768z"/>
    </symbol>
    <symbol id="icon-foster-peters" viewBox="0 0 65 32">
      <path d="M10.016 9.983h-.002c-1.827 0-3.308 1.316-3.308 2.94v.002c0 1.624 1.481 2.94 3.308 2.94h.002c1.827 0 3.308-1.317 3.308-2.94v-.002c0-1.624-1.481-2.941-3.308-2.941zm24.418-.939c-.005-2.255-1.016-4.418-2.81-6.012S27.398.539 24.861.534c-2.539.004-4.972.902-6.767 2.497s-2.806 3.757-2.811 6.013v12.437s19.15-1.896 19.152-12.434v-.002zM0 25.562c.005 1.57.709 3.073 1.957 4.183s2.94 1.735 4.706 1.739c1.765-.005 3.457-.63 4.706-1.739s1.952-2.613 1.957-4.181V16.91S.002 18.23.002 25.562zm6.662 1.55c-.345 0-.682-.091-.969-.261a1.617 1.617 0 0 1-.638-.686l-.004-.009a1.394 1.394 0 0 1-.097-.904l-.002.009a1.5 1.5 0 0 1 .477-.794 1.81 1.81 0 0 1 .882-.423l.011-.002a1.939 1.939 0 0 1 1.021.092l-.013-.004c.319.117.592.316.783.571s.294.555.294.861c.001.204-.043.407-.131.596a1.555 1.555 0 0 1-.376.503l-.002.001a1.77 1.77 0 0 1-.567.338 1.907 1.907 0 0 1-.668.119h-.001v-.006zm13.466-.854h-1.286v1.328h-.67v-3.251h2.117v.542h-1.447v.84h1.286v.54zm3.218-.223c0 .32-.056.6-.169.841s-.276.427-.488.558a1.32 1.32 0 0 1-.698.197h-.025.001c-.27 0-.51-.065-.722-.194a1.296 1.296 0 0 1-.487-.546l-.003-.008a1.882 1.882 0 0 1-.177-.804v-.028.001-.16c0-.32.058-.602.172-.844a1.285 1.285 0 0 1 1.212-.757c.271 0 .51.066.721.197.211.13.374.316.489.56.116.242.174.523.174.841v.145zm-.678-.148c0-.341-.061-.6-.183-.777a.596.596 0 0 0-.496-.266l-.028.001h.001l-.025-.001a.597.597 0 0 0-.494.262l-.001.002c-.122.174-.184.43-.185.768v.158c0 .331.061.589.183.772s.297.274.527.274l.026.001a.59.59 0 0 0 .49-.261l.001-.002c.12-.177.181-.434.183-.773v-.158zm2.85.846.001-.019a.34.34 0 0 0-.133-.27l-.001-.001c-.089-.069-.25-.14-.482-.214a3.473 3.473 0 0 1-.57-.232l.019.009c-.37-.2-.554-.469-.554-.806 0-.175.049-.332.147-.469a.975.975 0 0 1 .427-.324c.186-.077.395-.116.625-.116.232 0 .439.042.621.127a.97.97 0 0 1 .421.355.926.926 0 0 1 .152.522h-.67a.434.434 0 0 0-.14-.346c-.094-.084-.226-.125-.395-.125-.164 0-.291.035-.382.105a.325.325 0 0 0-.136.265v.008c0 .106.053.194.158.266.107.071.264.138.471.2.381.114.658.257.833.427s.261.381.261.634c0 .281-.107.503-.32.663s-.498.239-.859.239c-.25 0-.478-.046-.683-.137a1.11 1.11 0 0 1-.469-.373l-.002-.003a.962.962 0 0 1-.16-.533v-.022.001h.671c0 .358.214.538.643.538a.634.634 0 0 0 .373-.096.32.32 0 0 0 .134-.259v-.013.001zm3.574-1.855h-.995v2.708h-.67v-2.708h-.981v-.542h2.647v.542zm2.339 1.3h-1.285v.871h1.509v.538h-2.178v-3.251h2.174v.542h-1.505v.775h1.286v.524zm1.819.218h-.533v1.19h-.67v-3.251h1.208c.384 0 .68.086.888.257s.312.413.312.725a.996.996 0 0 1-.145.556.977.977 0 0 1-.429.35l-.006.002.702 1.328v.03h-.718l-.61-1.189zm-.533-.542h.541c.168 0 .297-.042.39-.126a.46.46 0 0 0 .139-.33l-.001-.026v.001c0-.154-.043-.274-.131-.362s-.219-.132-.4-.132h-.538v.975zm4.058.587v1.145h-.67v-3.251h1.268c.244 0 .459.045.643.134a.98.98 0 0 1 .429.382c.099.164.149.35.149.56 0 .318-.11.57-.328.754-.218.183-.519.275-.904.275h-.587zm0-.542h.598c.178 0 .312-.042.404-.125a.454.454 0 0 0 .141-.357l.001-.024a.534.534 0 0 0-.141-.363.527.527 0 0 0-.389-.152h-.614v1.021zm4.236.279h-1.285v.871h1.509v.538h-2.178v-3.251h2.174v.542h-1.505v.775h1.286v.524zm3.108-1.3h-.996v2.708h-.67v-2.708h-.982v-.542h2.648v.542zm2.339 1.3h-1.285v.871h1.509v.538h-2.179v-3.251h2.174v.542h-1.504v.775h1.285v.524zm1.819.218h-.533v1.19h-.67v-3.251h1.208c.384 0 .68.086.888.257s.312.413.312.725c0 .222-.049.408-.145.556a.982.982 0 0 1-.429.35l-.006.002.703 1.328v.03h-.718l-.61-1.189zm-.533-.542h.54c.168 0 .298-.042.39-.126a.46.46 0 0 0 .139-.331l-.001-.025v.001a.484.484 0 0 0-.132-.362c-.086-.088-.219-.132-.399-.132h-.538v.975zm3.935.88.001-.019a.34.34 0 0 0-.134-.271l-.001-.001c-.089-.069-.25-.14-.482-.214a3.473 3.473 0 0 1-.57-.232l.019.009c-.37-.2-.554-.469-.554-.806 0-.175.05-.332.147-.469a.975.975 0 0 1 .427-.324c.186-.077.395-.116.625-.116.232 0 .439.042.621.127a.97.97 0 0 1 .421.355.926.926 0 0 1 .152.522h-.67a.434.434 0 0 0-.14-.346c-.094-.084-.226-.125-.395-.125-.164 0-.291.035-.382.105a.326.326 0 0 0-.137.265v.007c0 .106.053.194.159.266s.264.138.471.2c.381.114.658.257.833.427s.261.381.261.634c0 .281-.107.503-.32.663s-.499.239-.859.239c-.25 0-.478-.046-.683-.137a1.11 1.11 0 0 1-.469-.373l-.002-.003a.962.962 0 0 1-.16-.533v-.022.001h.671c0 .358.214.538.643.538a.634.634 0 0 0 .373-.096.317.317 0 0 0 .134-.26v-.013.001z"/>
    </symbol>
    <symbol id="icon-instagram" viewBox="0 0 32 32">
      <path d="M31.968 9.408c-.074-1.701-.349-2.869-.742-3.882a7.839 7.839 0 0 0-1.85-2.837l-.001-.001A7.906 7.906 0 0 0 26.597.861l-.054-.018C25.524.449 24.362.176 22.661.101 20.949.019 20.405 0 16.059 0c-4.344 0-4.888.019-6.595.094-1.699.074-2.869.349-3.88.742a7.847 7.847 0 0 0-2.839 1.85l-.001.001A7.9 7.9 0 0 0 .919 5.465l-.018.054C.506 6.538.232 7.7.157 9.401c-.082 1.712-.101 2.256-.101 6.602 0 4.344.019 4.888.094 6.595.075 1.701.35 2.869.744 3.882a7.915 7.915 0 0 0 1.849 2.837l.001.001c.8.813 1.77 1.443 2.832 1.843 1.019.395 2.182.67 3.882.744 1.707.075 2.251.094 6.595.094 4.346 0 4.89-.019 6.595-.094 1.701-.074 2.869-.349 3.882-.742a8.237 8.237 0 0 0 4.664-4.628l.019-.055c.394-1.019.669-2.182.744-3.882.075-1.707.093-2.251.093-6.595s-.006-4.888-.08-6.595zm-2.88 13.066c-.07 1.563-.333 2.406-.55 2.97a5.341 5.341 0 0 1-3.004 3.024l-.036.012c-.56.219-1.411.482-2.968.55-1.688.075-2.194.094-6.464.094-4.269 0-4.782-.019-6.464-.094-1.563-.069-2.406-.331-2.97-.55a4.953 4.953 0 0 1-1.836-1.192l-.001-.001a4.978 4.978 0 0 1-1.184-1.803L3.6 25.45c-.218-.563-.48-1.413-.549-2.97-.075-1.688-.094-2.195-.094-6.464 0-4.27.019-4.784.094-6.464.069-1.563.331-2.406.549-2.97a4.897 4.897 0 0 1 1.198-1.837l.002-.002a4.972 4.972 0 0 1 1.806-1.182l.034-.011c.56-.219 1.411-.48 2.968-.55 1.688-.074 2.195-.093 6.464-.093 4.275 0 4.782.019 6.464.093 1.563.069 2.406.331 2.97.55a4.91 4.91 0 0 1 1.837 1.194c.531.52.938 1.144 1.195 1.84.218.56.48 1.411.549 2.968.075 1.688.094 2.194.094 6.464 0 4.269-.019 4.768-.094 6.458z"/>
      <path d="M16.059 7.782a8.223 8.223 0 0 0-8.219 8.221 8.223 8.223 0 0 0 16.442.008v-.009a8.223 8.223 0 0 0-8.221-8.221zm0 13.552a5.333 5.333 0 0 1 .001-10.666h.001a5.334 5.334 0 1 1 0 10.668zM26.525 7.458a1.92 1.92 0 0 1-3.84 0 1.92 1.92 0 0 1 3.84 0z"/>
    </symbol>
    <symbol id="icon-linkedin" viewBox="0 0 32 32">
      <path d="M31.992 32H32V20.262c0-5.741-1.237-10.163-7.947-10.163-3.227 0-5.392 1.77-6.277 3.45h-.093v-2.914h-6.365v21.363h6.627V21.42c0-2.786.528-5.48 3.978-5.48 3.398 0 3.448 3.179 3.448 5.658V32h6.621zM.528 10.635h6.635V32H.528V10.635zM3.843 0A3.843 3.843 0 0 0 0 3.843c0 2.12 1.722 3.878 3.843 3.878 2.12 0 3.842-1.757 3.842-3.878S5.965.002 3.844 0z"/>
    </symbol>
    <symbol id="icon-mail" viewBox="0 0 43 32">
      <path d="M38.667 0H4C1.795 0 0 1.795 0 4v24c0 2.205 1.795 4 4 4h34.667c2.205 0 4-1.795 4-4V4c0-2.205-1.795-4-4-4zm0 2.667c.181 0 .355.037.512.104L21.334 18.238 3.489 2.771c.151-.065.327-.104.512-.104h34.667zm0 26.666H4A1.333 1.333 0 0 1 2.667 28V5.587l17.792 15.421c.233.203.539.327.875.327s.642-.124.876-.328l-.002.001L40 5.587V28c0 .736-.597 1.333-1.333 1.333z"/>
    </symbol>
    <symbol id="icon-tel" viewBox="0 0 20 32">
      <path d="M17 0H3C1.346 0 0 1.346 0 3v26c0 1.654 1.346 3 3 3h14c1.654 0 3-1.346 3-3V3c0-1.654-1.346-3-3-3zM3 2h14a1 1 0 0 1 1 1v21H2V3a1 1 0 0 1 1-1zm14 28H3a1 1 0 0 1-1-1v-3h16v3a1 1 0 0 1-1 1z"/>
      <path d="M4.708 27.478a.889.889 0 0 1 .001 1.319l-.001.001a1.048 1.048 0 0 1-1.417 0l.001.001a.889.889 0 0 1-.001-1.319l.001-.001a1.048 1.048 0 0 1 1.417 0l-.001-.001z"/>
    </symbol>
    <symbol id="icon-twitter" viewBox="0 0 32 32">
      <path d="M32 6.078c-1.1.493-2.376.857-3.713 1.028l-.068.007a6.556 6.556 0 0 0 2.873-3.579l.013-.046a12.89 12.89 0 0 1-4.076 1.573l-.084.014A6.558 6.558 0 0 0 15.6 9.557v.004c0 .52.043 1.021.152 1.496-5.454-.266-10.28-2.88-13.522-6.861a6.524 6.524 0 0 0-.902 3.313v.001a6.57 6.57 0 0 0 2.914 5.451 6.453 6.453 0 0 1-2.994-.823l.033.017v.072a6.592 6.592 0 0 0 5.213 6.44l.043.008a6.403 6.403 0 0 1-1.662.215h-.061.003c-.419 0-.843-.024-1.242-.112.85 2.598 3.261 4.509 6.13 4.57a13.096 13.096 0 0 1-8.123 2.8H1.57h.001c-.538 0-1.053-.026-1.57-.091 2.827 1.846 6.287 2.944 10.004 2.944h.063-.003c12.072 0 18.672-10 18.672-18.669 0-.288-.01-.57-.024-.848a13.19 13.19 0 0 0 3.258-3.356l.03-.047z"/>
    </symbol>
    <symbol id="icon-ya--go" viewBox="0 0 28 32">
      <path d="m4.085 0 4.771 4.517-8.857-.005v21.915h23.149v-8.379l4.766 4.512V.001H4.084zm18.854 17.517L9.411 4.71h13.528v12.807zm-4.2 5.703H3.663V8.482h1.066v13.74H18.74v.997zM7.224 29.345l-.557 1.147-.557-1.147h-.467l.813 1.529v.891h.422v-.891l.811-1.529h-.465zm.7 2.42.196-.564h.938l.197.564h.439l-.916-2.42H8.4l-.914 2.42h.437zm.664-1.906.351 1.004h-.701l.351-1.004zm2.218.945a.544.544 0 0 0-.091.303v.004c0 .204.072.37.214.497s.336.19.575.19a1 1 0 0 0 .618-.195l.136.161h.468l-.355-.421c.14-.191.209-.435.209-.733h-.351a.973.973 0 0 1-.101.444l-.468-.552.165-.12a.922.922 0 0 0 .249-.249l.002-.003a.53.53 0 0 0 .076-.275v-.013a.495.495 0 0 0-.169-.374h-.001a.61.61 0 0 0-.408-.157h-.025.001c-.195 0-.35.056-.465.166s-.173.259-.173.449c0 .078.018.157.054.241.038.083.104.184.197.302-.179.129-.3.24-.36.334zm1.092.536a.613.613 0 0 1-.382.136h-.02a.395.395 0 0 1-.27-.106.36.36 0 0 1-.108-.259v-.014.001c0-.129.067-.245.2-.346l.052-.037.528.624zm-.434-1.073c-.114-.141-.172-.257-.172-.351 0-.081.024-.148.07-.201a.239.239 0 0 1 .178-.081h.01-.001.009c.067 0 .127.026.173.068a.214.214 0 0 1 .072.161v.009a.3.3 0 0 1-.103.226l-.052.041-.184.127zm3.94 1.315c.166-.145.261-.347.286-.605h-.419c-.022.173-.075.296-.158.37s-.208.112-.372.112c-.18 0-.318-.069-.412-.206s-.14-.337-.14-.599v-.214c.003-.259.052-.453.15-.587a.494.494 0 0 1 .422-.201c.157 0 .276.039.357.116s.133.202.153.376h.419c-.027-.265-.121-.47-.285-.615s-.378-.218-.645-.218a.978.978 0 0 0-.525.142.925.925 0 0 0-.345.396l-.002.006a1.396 1.396 0 0 0-.122.576v.03-.001.226c.003.223.045.418.125.587s.193.298.339.39a.955.955 0 0 0 .511.136c.276 0 .497-.072.663-.216zm2.471-.339c.082-.18.123-.388.123-.625v-.158c0-.216-.047-.421-.131-.605l.004.009a.932.932 0 0 0-.35-.406l-.004-.002c-.152-.095-.326-.143-.524-.143s-.372.048-.525.144a.939.939 0 0 0-.354.414c-.079.175-.125.38-.125.595v.032-.002.136c.001.232.043.436.126.613a.95.95 0 0 0 .356.411.98.98 0 0 0 .525.143.971.971 0 0 0 .526-.143.941.941 0 0 0 .352-.413zm-.45-1.369c.102.143.152.349.152.618v.126c0 .272-.05.48-.151.622a.49.49 0 0 1-.429.213h-.017a.503.503 0 0 1-.413-.216l-.001-.002c-.104-.145-.155-.351-.155-.617v-.14c.002-.26.054-.462.156-.603a.498.498 0 0 1 .409-.215h.018-.001c.187 0 .33.072.431.214z"/>
    </symbol>
  </defs>
</svg>